<svg xmlns="http://www.w3.org/2000/svg" viewBox="0 0 100 100" fill="none">
  <!-- Background circle for better visibility -->
  <circle cx="50" cy="50" r="48" fill="#0ea5e9" opacity="0.1"/>
  
  <!-- Hook - curved shape -->
  <path d="M50 15 Q42 25 40 45 Q38 65 45 75 Q50 80 55 75" 
        stroke="#0ea5e9" 
        stroke-width="3.5" 
        stroke-linecap="round" 
        stroke-linejoin="round" 
        fill="none"/>
  
  <!-- Hook point -->
  <path d="M55 75 L60 80" 
        stroke="#0ea5e9" 
        stroke-width="3.5" 
        stroke-linecap="round"/>
  
  <!-- Body - wrapped thread style -->
  <ellipse cx="50" cy="45" rx="10" ry="15" fill="#0ea5e9"/>
  <path d="M40 45 Q50 40 60 45 Q50 50 40 45" 
        stroke="#14b8a6" 
        stroke-width="1.5" 
        fill="none" 
        opacity="0.6"/>
  
  <!-- Wings - left -->
  <path d="M40 40 Q30 35 25 40 Q30 45 40 40" 
        fill="#14b8a6" 
        opacity="0.7"/>
  
  <!-- Wings - right -->
  <path d="M60 40 Q70 35 75 40 Q70 45 60 40" 
        fill="#14b8a6" 
        opacity="0.7"/>
  
  <!-- Tail feathers -->
  <path d="M50 60 Q45 65 38 70" 
        stroke="#0ea5e9" 
        stroke-width="2" 
        stroke-linecap="round" 
        fill="none"/>
  <path d="M50 60 Q50 65 48 70" 
        stroke="#0ea5e9" 
        stroke-width="2" 
        stroke-linecap="round" 
        fill="none"/>
  <path d="M50 60 Q55 65 62 70" 
        stroke="#0ea5e9" 
        stroke-width="2" 
        stroke-linecap="round" 
        fill="none"/>
</svg>

